{"title":"Dirty Mind of Young Sally 1970 [HD 720P]","uid":10542243,"size":734056448,"categoryP":"porn","categoryS":"hd___movies","magnet":"?xt=urn:btih:c8bda0766cc872ee5cb6f4f46b373e3c8f5f6357&amp;dn=Dirty+Mind+of+Young+Sally+1970+%5BHD+720P%5D&amp;tr=udp%3A%2F%2Ftracker.openbittorrent.com%3A80&amp;tr=udp%3A%2F%2Fopen.demonii.com%3A1337&amp;tr=udp%3A%2F%2Ftracker.coppersurfer.tk%3A6969&amp;tr=udp%3A%2F%2Fexodus.desync.com%3A6969","seeders":2,"leechers":0,"uploader":"rikiry002","files":1,"time":1405242545,"description":"Screens &lt;a href=&quot;\nhttp://imgextra.biz/viewer.php?file=v3pa6pgbazwrm0e7dqw.jpg&quot; rel=&quot;nofollow&quot; target=&quot;_NEW&quot;&gt;\nhttp://imgextra.biz/viewer.php?file=v3pa6pgbazwrm0e7dqw.jpg&lt;/a&gt; &lt;a href=&quot;\nhttp://imgextra.biz/viewer.php?file=ygsqrrthulopa93qyjuh.jpg&quot; rel=&quot;nofollow&quot; target=&quot;_NEW&quot;&gt;\nhttp://imgextra.biz/viewer.php?file=ygsqrrthulopa93qyjuh.jpg&lt;/a&gt;\n\nCast\n\nYear: 1970\nSize: 700 MB (1:35:35)\nDirector: Bethel Buckalew\nStudio: Something Weird Video\nFormat:  AVI (608x464)\nPerformers: Sharon Kelly (aka Colleen Brennan), George Flowers, Norman Fields\n\nGeneral\nComplete name                            : C:UsersAdministratorDownloadsDirty Mind of Young Sally (1970).avi\nFormat                                   : AVI\nFormat/Info                              : Audio Video Interleave\nFile size                                : 700 MiB\nDuration                                 : 1h 35mn\nOverall bit rate mode                    : Variable\nOverall bit rate                         : 1 024 Kbps\nWriting application                      : VirtualDubMod 1.5.4.1 (build 2178/release)\nWriting library                          : VirtualDubMod build 2178/release\n\nVideo\nID                                       : 0\nFormat                                   : MPEG-4 Visual\nFormat profile                           : Advanced Simple@L5\nFormat settings, BVOP                    : 1\nFormat settings, QPel                    : No\nFormat settings, GMC                     : No warppoints\nFormat settings, Matrix                  : Custom\nCodec ID                                 : XVID\nCodec ID/Hint                            : XviD\nDuration                                 : 1h 35mn\nBit rate                                 : 874 Kbps\nWidth                                    : 608 pixels\nHeight                                   : 464 pixels\nDisplay aspect ratio                     : 4:3\nFrame rate                               : 23.976 fps\nColor space                              : YUV\nChroma subsampling                       : 4:2:0\nBit depth                                : 8 bits\nScan type                                : Progressive\nCompression mode                         : Lossy\nBits/(Pixel*Frame)                       : 0.129\nStream size                              : 597 MiB (85%)\nWriting library                          : XviD 1.0.3 (UTC 2004-12-20)\n\nAudio\nID                                       : 1\nFormat                                   : MPEG Audio\nFormat version                           : Version 1\nFormat profile                           : Layer 3\nMode                                     : Joint stereo\nMode extension                           : MS Stereo\nCodec ID                                 : 55\nCodec ID/Hint                            : MP3\nDuration                                 : 1h 35mn\nBit rate mode                            : Variable\nBit rate                                 : 138 Kbps\nNominal bit rate                         : 128 Kbps\nChannel(s)                               : 2 channels\nSampling rate                            : 48.0 KHz\nCompression mode                         : Lossy\nStream size                              : 94.0 MiB (13%)\nAlignment                                : Aligned on interleaves\nInterleave, duration                     : 24 ms (0.58 video frame)\nInterleave, preload duration             : 134 ms\nWriting library                          : LAME3.96r\nEncoding settings                        : -m j -V 4 -q 2 -lowpass 17.5 --abr 128\nLanguage                                 : English","torrent":{"xt":"urn:btih:c8bda0766cc872ee5cb6f4f46b373e3c8f5f6357","amp;dn":"Dirty+Mind+of+Young+Sally+1970+%5BHD+720P%5D","amp;tr":["udp%3A%2F%2Ftracker.openbittorrent.com%3A80","udp%3A%2F%2Fopen.demonii.com%3A1337","udp%3A%2F%2Ftracker.coppersurfer.tk%3A6969","udp%3A%2F%2Fexodus.desync.com%3A6969"],"infoHash":"c8bda0766cc872ee5cb6f4f46b373e3c8f5f6357","infoHashBuffer":{"type":"Buffer","data":[200,189,160,118,108,200,114,238,92,182,244,244,107,55,62,60,143,95,99,87]},"announce":[],"urlList":[]}}